<?xml version="1.0" encoding="utf-8"?>
<!-- Generator: Adobe Illustrator 19.2.1, SVG Export Plug-In . SVG Version: 6.00 Build 0)  -->
<svg version="1.1" id="Layer_1" xmlns="http://www.w3.org/2000/svg" xmlns:xlink="http://www.w3.org/1999/xlink" x="0px" y="0px"
	 viewBox="0 0 491 62" style="enable-background:new 0 0 491 62;" xml:space="preserve">
<style type="text/css">
	.st0{fill:none;stroke:#315AA9;stroke-width:0.5;stroke-miterlimit:10;}
	.st1{fill:#FFFFFF;stroke:#315AA9;stroke-width:0.5;stroke-miterlimit:10;}
</style>
<line class="st0" x1="19" y1="39" x2="463" y2="39"/>
<g>
	<circle class="st1" cx="19.7" cy="39" r="5"/>
	<circle class="st1" cx="43" cy="39" r="5"/>
	<circle class="st1" cx="66.3" cy="39" r="5"/>
	<circle class="st1" cx="89.7" cy="39" r="5"/>
	<circle class="st1" cx="113" cy="39" r="5"/>
	<circle class="st1" cx="136.3" cy="39" r="5"/>
	<circle class="st1" cx="159.7" cy="39" r="5"/>
	<circle class="st1" cx="183" cy="39" r="5"/>
	<circle class="st1" cx="206.3" cy="39" r="5"/>
	<circle class="st1" cx="229.7" cy="39" r="5"/>
	<circle class="st1" cx="253" cy="39" r="5"/>
	<circle class="st1" cx="276.3" cy="39" r="5"/>
	<circle class="st1" cx="299.7" cy="39" r="5"/>
	<circle class="st1" cx="323" cy="39" r="5"/>
	<circle class="st1" cx="346.3" cy="39" r="5"/>
	<circle class="st1" cx="369.7" cy="39" r="5"/>
	<circle class="st1" cx="393" cy="39" r="5"/>
	<circle class="st1" cx="416.3" cy="39" r="5"/>
	<circle class="st1" cx="439.7" cy="39" r="5"/>
	<circle class="st1" cx="463" cy="39" r="5"/>
</g>
</svg>
